<mxfile host="app.diagrams.net" modified="2023-12-29T03:20:51.744Z" agent="Mozilla/5.0 (Windows NT 10.0; Win64; x64) AppleWebKit/537.36 (KHTML, like Gecko) Chrome/120.0.0.0 Safari/537.36" version="22.1.15" etag="ve5b2GO9UVa76U0GTRl_" type="github">
  <diagram name="Halaman-1" id="veRG5Fp6vcVAsSzfyaac">
    <mxGraphModel>
      <root>
        <mxCell id="0" />
        <mxCell id="1" parent="0" />
      </root>
    </mxGraphModel>
  </diagram>
</mxfile>
